<?xml version="1.0" encoding="UTF-8"?>
<svg xmlns="http://www.w3.org/2000/svg" width="169" height="36" viewBox="0 0 169 36" fill="none">
  <g clip-path="url(#clip0_1049_10775)">
    <path d="M18.8599 25.4924C20.5705 25.4924 21.9057 24.8538 22.8578 23.5844C23.8099 22.3111 24.2859 20.5269 24.2859 18.2241C24.2859 15.9214 23.7983 14.2998 22.8268 13.0497C21.8554 11.7957 20.5318 11.1688 18.8599 11.1688C17.0718 11.1688 15.7057 11.788 14.7652 13.0303C13.8247 14.2727 13.3564 16.0839 13.3564 18.4757C13.3564 20.8675 13.8209 22.5046 14.7575 23.7005C15.6902 24.8964 17.0564 25.4963 18.8599 25.4963" fill="white"></path>
    <path d="M17.7449 0.510223C7.94553 0.510223 0 8.45575 0 18.2551C0 24.9544 3.7154 30.7868 9.19561 33.8056V7.98746H13.3948V10.8824C14.2501 9.62843 15.1906 8.7228 16.2123 8.15775C17.234 7.59657 18.4415 7.31404 19.8348 7.31404C22.4936 7.31404 24.6377 8.31256 26.2671 10.3057C27.8964 12.2989 28.713 14.9383 28.713 18.2241C28.713 21.51 27.8964 24.2462 26.2671 26.2858C24.6377 28.3254 22.5052 29.3432 19.8735 29.3432C18.4802 29.3432 17.2379 29.0723 16.1542 28.5266C15.0667 27.9848 14.1611 27.1798 13.4335 26.1194V35.4698C14.8151 35.8142 16.2587 36 17.7449 36C27.5481 36 35.4898 28.0545 35.4898 18.2551C35.4898 8.45575 27.5442 0.510223 17.7449 0.510223Z" fill="white"></path>
    <path d="M18.8599 25.4924C20.5705 25.4924 21.9057 24.8538 22.8578 23.5844C23.8099 22.3111 24.2859 20.5269 24.2859 18.2241C24.2859 15.9214 23.7983 14.2998 22.8268 13.0497C21.8554 11.7957 20.5318 11.1688 18.8599 11.1688C17.0718 11.1688 15.7057 11.788 14.7652 13.0303C13.8247 14.2727 13.3564 16.0839 13.3564 18.4757C13.3564 20.8675 13.8209 22.5046 14.7575 23.7005C15.6902 24.8964 17.0564 25.4963 18.8599 25.4963" fill="white"></path>
    <path d="M40.7338 18.9943V19.0833C40.7338 21.003 41.1982 22.5278 42.1193 23.6657C43.0443 24.8035 44.2828 25.3685 45.8386 25.3685C47.0693 25.3685 48.0949 25.0357 48.9231 24.37C49.7514 23.7082 50.2506 22.7987 50.4286 21.6493H52.2438C52.0464 23.2438 51.3575 24.521 50.1771 25.4769C48.9967 26.4367 47.5105 26.9166 45.7186 26.9166C43.5823 26.9166 41.9103 26.1929 40.7028 24.7454C39.4914 23.298 38.8877 21.2932 38.8877 18.7234C38.8877 16.1536 39.4953 14.0637 40.7106 12.6007C41.9258 11.1378 43.6132 10.4025 45.7805 10.4025C47.9478 10.4025 49.5269 11.103 50.7034 12.504C51.88 13.905 52.4682 15.8672 52.4682 18.3828V18.9866H40.7377L40.7338 18.9943ZM40.7647 17.5353L50.5951 17.5507C50.5177 15.8169 50.0455 14.4584 49.1863 13.4677C48.3271 12.4808 47.1815 11.9854 45.7534 11.9854C44.3253 11.9854 43.1488 12.4846 42.247 13.4909C41.3453 14.4933 40.8538 15.844 40.7647 17.5353Z" fill="white"></path>
    <path d="M65.8937 24.2191C65.0655 25.1131 64.1715 25.7827 63.2078 26.2277C62.2441 26.6689 61.2069 26.8934 60.0962 26.8934C58.5132 26.8934 57.2516 26.4793 56.3111 25.6549C55.3706 24.8267 54.9023 23.7276 54.9023 22.3498C54.9023 21.4558 55.1152 20.674 55.5448 20.0044C55.9705 19.3349 56.5936 18.8086 57.4102 18.4254C58.343 18.0036 59.9065 17.7055 62.0893 17.5391C62.5112 17.5082 62.8324 17.4849 63.0491 17.4656C63.1768 17.4346 63.351 17.3998 63.5677 17.3611C65.0655 17.0554 65.8125 16.4129 65.8125 15.426C65.8125 14.2069 65.5106 13.3322 64.903 12.8059C64.2992 12.2795 63.3007 12.0163 61.9152 12.0163C60.5296 12.0163 59.4305 12.3066 58.6835 12.8949C57.9366 13.4793 57.5341 14.3462 57.4722 15.4995L55.688 15.484C55.7267 13.9205 56.3034 12.682 57.4141 11.7725C58.5249 10.863 60.0265 10.4063 61.9152 10.4063C63.8038 10.4063 65.2203 10.8088 66.1956 11.6177C67.1709 12.4227 67.6585 13.6031 67.6585 15.159V23.716C67.6585 24.3662 67.7359 24.7687 67.8946 24.9274C68.0533 25.086 68.3474 25.1634 68.7809 25.1634C68.9202 25.1634 69.0363 25.1634 69.137 25.1557C69.2337 25.1518 69.3382 25.1441 69.4466 25.1325V26.4909C69.2182 26.5412 68.9938 26.5761 68.7693 26.6031C68.5409 26.6264 68.3358 26.638 68.1501 26.638C67.4031 26.638 66.8419 26.4561 66.4665 26.0923C66.0911 25.7285 65.9053 25.1867 65.9053 24.4668V24.2152L65.8937 24.2191ZM65.7776 18.2706C65.2977 18.4486 64.6785 18.5918 63.9238 18.7002C63.173 18.8086 61.9577 18.9053 60.2858 18.9943C59.1247 19.3001 58.2501 19.7335 57.6579 20.2947C57.0658 20.8559 56.7717 21.5293 56.7717 22.315C56.7717 23.209 57.089 23.925 57.7237 24.4552C58.3584 24.9854 59.2215 25.2524 60.3129 25.2524C61.9771 25.2524 63.3007 24.8229 64.2915 23.9598C65.2822 23.1006 65.7737 21.9279 65.7737 20.4418V18.2706H65.7776Z" fill="white"></path>
    <path d="M71.8887 26.4948V4.75583H73.6999V18.4215L81.5371 10.805H83.8553L77.9378 16.5445L84.5791 26.4948H82.4969L76.6684 17.7558L73.6999 20.6043V26.4948H71.8887Z" fill="white"></path>
    <path d="M86.5722 32.811V10.805H88.4144V13.6264C89.0066 12.535 89.7497 11.7261 90.6437 11.1997C91.5377 10.6734 92.6214 10.4102 93.8908 10.4102C96.0426 10.4102 97.7416 11.1456 98.9801 12.6162C100.219 14.0869 100.842 16.1072 100.842 18.6731C100.842 21.239 100.215 23.2593 98.9569 24.7261C97.7029 26.1929 95.9846 26.9244 93.8018 26.9244C92.5904 26.9244 91.5416 26.6651 90.6553 26.1426C89.769 25.6201 89.0259 24.8345 88.4106 23.7818V32.8148H86.5684L86.5722 32.811ZM88.3254 18.6731C88.3254 20.7475 88.7937 22.373 89.7264 23.5496C90.6592 24.7261 91.9557 25.3105 93.6083 25.3105C95.2608 25.3105 96.6348 24.7338 97.5559 23.5844C98.4731 22.4311 98.9337 20.794 98.9337 18.6692C98.9337 16.5445 98.4692 14.9035 97.5481 13.7463C96.6232 12.593 95.3073 12.0125 93.6083 12.0125C91.9092 12.0125 90.6127 12.5891 89.6955 13.7386C88.7821 14.888 88.3216 16.5329 88.3216 18.6692" fill="white"></path>
    <path d="M114.256 24.2191C113.428 25.1131 112.534 25.7827 111.57 26.2277C110.606 26.6689 109.569 26.8934 108.455 26.8934C106.872 26.8934 105.61 26.4793 104.67 25.6549C103.729 24.8267 103.261 23.7276 103.261 22.3498C103.261 21.4558 103.474 20.674 103.899 20.0044C104.329 19.3349 104.948 18.8086 105.769 18.4254C106.701 18.0036 108.261 17.7055 110.448 17.5391C110.873 17.5082 111.191 17.4849 111.408 17.4656C111.535 17.4346 111.709 17.3998 111.922 17.3611C113.42 17.0554 114.167 16.4129 114.167 15.426C114.167 14.2069 113.865 13.3322 113.257 12.8059C112.654 12.2795 111.659 12.0163 110.27 12.0163C108.88 12.0163 107.789 12.3066 107.038 12.8949C106.291 13.4793 105.889 14.3462 105.831 15.4995L104.043 15.484C104.081 13.9205 104.658 12.682 105.769 11.7725C106.879 10.863 108.381 10.4063 110.27 10.4063C112.158 10.4063 113.575 10.8088 114.55 11.6177C115.522 12.4227 116.009 13.6031 116.009 15.159V23.716C116.009 24.3662 116.09 24.7687 116.245 24.9274C116.404 25.086 116.698 25.1634 117.132 25.1634C117.267 25.1634 117.387 25.1634 117.484 25.1557C117.58 25.1518 117.685 25.1441 117.793 25.1325V26.4909C117.569 26.5412 117.341 26.5761 117.116 26.6031C116.888 26.6264 116.683 26.638 116.497 26.638C115.75 26.638 115.189 26.4561 114.813 26.0923C114.438 25.7285 114.252 25.1867 114.252 24.4668V24.2152L114.256 24.2191ZM114.14 18.2706C113.656 18.4486 113.041 18.5918 112.286 18.7002C111.535 18.8086 110.32 18.9053 108.648 18.9943C107.487 19.3001 106.612 19.7335 106.02 20.2947C105.428 20.8559 105.134 21.5293 105.134 22.315C105.134 23.209 105.451 23.925 106.086 24.4552C106.721 24.9854 107.584 25.2524 108.675 25.2524C110.339 25.2524 111.663 24.8229 112.654 23.9598C113.644 23.1006 114.14 21.9279 114.14 20.4418V18.2706Z" fill="white"></path>
    <path d="M131.038 21.0765H132.853C132.686 22.8761 132.021 24.2965 130.86 25.3337C129.699 26.3709 128.189 26.8895 126.328 26.8895C124.203 26.8895 122.531 26.1619 121.3 24.7067C120.077 23.2515 119.462 21.2661 119.462 18.7582C119.462 16.2503 120.085 14.1179 121.331 12.6317C122.577 11.1455 124.28 10.4025 126.444 10.4025C128.205 10.4025 129.652 10.8979 130.79 11.8848C131.928 12.8717 132.539 14.1759 132.628 15.7859H130.887C130.74 14.6442 130.26 13.7308 129.447 13.0419C128.638 12.3531 127.636 12.0086 126.444 12.0086C124.88 12.0086 123.638 12.5969 122.717 13.7812C121.796 14.9616 121.339 16.5638 121.339 18.5918C121.339 20.6198 121.803 22.3111 122.732 23.5225C123.665 24.7338 124.907 25.3376 126.475 25.3376C127.698 25.3376 128.712 24.9583 129.528 24.1997C130.345 23.4412 130.848 22.4001 131.034 21.0726" fill="white"></path>
    <path d="M136.038 4.75583H137.842V7.48819H136.038V4.75583ZM136.038 10.805H137.842V26.4948H136.038V10.805Z" fill="white"></path>
    <path d="M142.962 26.4948V12.2795H140.659V10.805H142.962V7.94101C142.962 6.7606 143.256 5.90142 143.848 5.35959C144.436 4.81776 145.381 4.54684 146.681 4.54684C146.821 4.54684 146.964 4.55458 147.115 4.57007C147.266 4.58555 147.432 4.61264 147.61 4.65134V6.27683C147.567 6.27683 147.509 6.27296 147.432 6.26135C147.037 6.23038 146.762 6.2149 146.604 6.2149C145.927 6.2149 145.45 6.35423 145.176 6.63675C144.901 6.91541 144.762 7.4108 144.762 8.11904V10.805H147.61V12.2795H144.762V26.4909H142.962V26.4948Z" fill="white"></path>
    <path d="M150.311 4.75583H152.11V7.48819H150.311V4.75583ZM150.311 10.805H152.11V26.4948H150.311V10.805Z" fill="white"></path>
    <path d="M167.134 21.0765H168.95C168.783 22.8761 168.117 24.2965 166.956 25.3337C165.795 26.3709 164.286 26.8895 162.428 26.8895C160.3 26.8895 158.624 26.1619 157.401 24.7067C156.178 23.2515 155.562 21.2661 155.562 18.7582C155.562 16.2503 156.186 14.1179 157.432 12.6317C158.674 11.1455 160.381 10.4025 162.544 10.4025C164.305 10.4025 165.753 10.8979 166.891 11.8848C168.025 12.8717 168.64 14.1759 168.729 15.7859H166.987C166.836 14.6442 166.36 13.7308 165.548 13.0419C164.735 12.3531 163.732 12.0086 162.544 12.0086C160.981 12.0086 159.738 12.5969 158.817 13.7812C157.896 14.9616 157.44 16.5638 157.44 18.5918C157.44 20.6198 157.904 22.3111 158.833 23.5225C159.762 24.7338 161.008 25.3376 162.575 25.3376C163.794 25.3376 164.812 24.9583 165.629 24.1997C166.446 23.4412 166.949 22.4001 167.134 21.0726" fill="white"></path>
  </g>
  <defs>
    <clipPath id="clip0_1049_10775">
      <rect width="168.95" height="35.4898" fill="white" transform="translate(0 0.510223)"></rect>
    </clipPath>
  </defs>
</svg>
